<svg xmlns="http://www.w3.org/2000/svg" version="1.1" xmlns:xlink="http://www.w3.org/1999/xlink" xmlns:svgjs="http://svgjs.dev/svgjs" width="1500" height="1500" viewBox="0 0 1500 1500"><rect width="1500" height="1500" fill="#ffffff"></rect><g transform="matrix(0.6666666666666666,0,0,0.6666666666666666,249.39393939393938,435.99032258064517)"><svg viewBox="0 0 396 248" data-background-color="#ffffff" preserveAspectRatio="xMidYMid meet" height="939" width="1500" xmlns="http://www.w3.org/2000/svg" xmlns:xlink="http://www.w3.org/1999/xlink"><g id="tight-bounds" transform="matrix(1,0,0,1,0.2400000000000091,0.4000000000000057)"><svg viewBox="0 0 395.52 247.2" height="247.2" width="395.52"><g><svg></svg></g><g><svg viewBox="0 0 395.52 247.2" height="247.2" width="395.52"><g transform="matrix(1,0,0,1,75.54432000000001,50.536278260869565)"><svg viewBox="0 0 244.43135999999996 146.12744347826086" height="146.12744347826086" width="244.43135999999996"><g><svg viewBox="0 0 244.43135999999996 146.12744347826086" height="146.12744347826086" width="244.43135999999996"><g><svg viewBox="0 0 244.43136 146.1274434782609" height="146.12744347826086" width="244.43135999999996"><g><svg viewBox="0 0 244.43136 146.1274434782609" height="146.1274434782609" width="244.43136"><g id="textblocktransform"><svg viewBox="0 0 244.43136 146.1274434782609" height="146.1274434782609" width="244.43136" id="textblock"><g><svg viewBox="0 0 244.43136 146.1274434782609" height="146.1274434782609" width="244.43136"><g transform="matrix(1,0,0,1,0,0)"><svg width="244.43136" viewBox="3.25 -35.5 60.64 36.26" height="146.1274434782609" data-palette-color="url(#000daba0-accc-45df-8ca6-9a42936a0e1e)"></svg></g></svg></g></svg></g></svg></g></svg></g></svg></g></svg></g><path d="M255.03 44.536L255.03 1.348 10.526 1.348 10.526 245.852 255.03 245.852 255.03 202.664 241.852 202.664 241.852 232.674 23.704 232.674 23.704 14.526 241.852 14.526 241.852 44.536Z" fill="#ececec" stroke="transparent" data-fill-palette-color="tertiary"></path></svg></g><defs></defs><mask id="b4471176-8efd-4690-a99d-9ac064e81a87"><g id="SvgjsG4273"><svg viewBox="0 0 395.52 247.2" height="247.2" width="395.52"><g><svg></svg></g><g><svg viewBox="0 0 395.52 247.2" height="247.2" width="395.52"><g transform="matrix(1,0,0,1,75.54432000000001,50.536278260869565)"><svg viewBox="0 0 244.43135999999996 146.12744347826086" height="146.12744347826086" width="244.43135999999996"><g><svg viewBox="0 0 244.43135999999996 146.12744347826086" height="146.12744347826086" width="244.43135999999996"><g><svg viewBox="0 0 244.43136 146.1274434782609" height="146.12744347826086" width="244.43135999999996"><g><svg viewBox="0 0 244.43136 146.1274434782609" height="146.1274434782609" width="244.43136"><g id="SvgjsG4272"><svg viewBox="0 0 244.43136 146.1274434782609" height="146.1274434782609" width="244.43136" id="SvgjsSvg4271"><g><svg viewBox="0 0 244.43136 146.1274434782609" height="146.1274434782609" width="244.43136"><g transform="matrix(1,0,0,1,0,0)"><svg width="244.43136" viewBox="3.25 -35.5 60.64 36.26" height="146.1274434782609" data-palette-color="url(#000daba0-accc-45df-8ca6-9a42936a0e1e)"><path d="M31.3-17.5L31.3-17.5Q31.3-15.09 30.68-12.85 30.05-10.62 28.91-8.68 27.76-6.74 26.17-5.14 24.58-3.54 22.63-2.39 20.68-1.25 18.44-0.62 16.21 0 13.79 0L13.79 0 3.25 0 3.25-35.01 13.79-35.01Q16.21-35.01 18.44-34.39 20.68-33.76 22.63-32.62 24.58-31.47 26.17-29.87 27.76-28.27 28.91-26.33 30.05-24.39 30.68-22.16 31.3-19.92 31.3-17.5ZM24.29-17.5L24.29-17.5Q24.29-19.68 23.47-21.58 22.66-23.49 21.23-24.91 19.8-26.34 17.88-27.17 15.97-28 13.79-28L13.79-28 10.3-28 10.3-7.01 13.79-7.01Q15.97-7.01 17.88-7.82 19.8-8.64 21.23-10.07 22.66-11.5 23.47-13.42 24.29-15.33 24.29-17.5ZM60.18-9.69L63.89-3.59Q61.45-1.49 58.42-0.37 55.39 0.76 52.15 0.76L52.15 0.76Q49.66 0.76 47.35 0.11 45.04-0.54 43.03-1.72 41.01-2.91 39.35-4.57 37.69-6.23 36.51-8.24 35.32-10.25 34.68-12.56 34.03-14.87 34.03-17.36L34.03-17.36Q34.03-19.85 34.68-22.17 35.32-24.49 36.51-26.5 37.69-28.52 39.35-30.18 41.01-31.84 43.03-33.02 45.04-34.2 47.35-34.85 49.66-35.5 52.15-35.5L52.15-35.5Q55.39-35.5 58.42-34.39 61.45-33.28 63.89-31.15L63.89-31.15 60.18-25.05Q58.64-26.71 56.54-27.6 54.44-28.49 52.15-28.49L52.15-28.49Q49.83-28.49 47.8-27.61 45.77-26.73 44.26-25.23 42.75-23.73 41.87-21.69 40.99-19.65 40.99-17.36L40.99-17.36Q40.99-15.06 41.87-13.05 42.75-11.04 44.26-9.52 45.77-8.01 47.8-7.13 49.83-6.25 52.15-6.25L52.15-6.25Q54.44-6.25 56.54-7.14 58.64-8.03 60.18-9.69L60.18-9.69Z" opacity="1" transform="matrix(1,0,0,1,0,0)" fill="white" class="wordmark-text-0" id="SvgjsPath4270"></path></svg></g></svg></g></svg></g></svg></g></svg></g></svg></g></svg></g><path d="M255.03 44.536L255.03 1.348 10.526 1.348 10.526 245.852 255.03 245.852 255.03 202.664 241.852 202.664 241.852 232.674 23.704 232.674 23.704 14.526 241.852 14.526 241.852 44.536Z" fill="black" stroke="transparent"></path></svg></g><defs><mask></mask></defs></svg><rect width="395.52" height="247.2" fill="black" stroke="none" visibility="hidden"></rect></g></mask><linearGradient x1="0" x2="1" y1="0.578" y2="0.595" id="000daba0-accc-45df-8ca6-9a42936a0e1e"><stop stop-color="#6ee2f5" offset="0"></stop><stop stop-color="#6454f0" offset="1"></stop></linearGradient><rect width="395.52" height="247.2" fill="url(#000daba0-accc-45df-8ca6-9a42936a0e1e)" mask="url(#b4471176-8efd-4690-a99d-9ac064e81a87)" data-fill-palette-color="primary"></rect></svg><rect width="395.52" height="247.2" fill="none" stroke="none" visibility="hidden"></rect></g></svg></g></svg>